<?xml version="1.0" encoding="utf-8"?>
<!-- Generator: Adobe Illustrator 18.1.1, SVG Export Plug-In . SVG Version: 6.00 Build 0)  -->
<svg version="1.1" id="Layer_1" xmlns="http://www.w3.org/2000/svg" xmlns:xlink="http://www.w3.org/1999/xlink" x="0px" y="0px"
	 viewBox="0 0 586 543" enable-background="new 0 0 586 543" xml:space="preserve">
<g>
	<path fill="#000000" d="M243,2v120.5c-68.8,0-95.6,47.8-95.6,149.2h-3.8h65c19.1,0,34.4,15.3,34.4,34.4v197
		c0,19.1-15.3,34.4-34.4,34.4H36.4C17.3,537.5,2,522.2,2,503.1v-197c0-1.9,0-3.8,0-5.7C5.8,151.2,40.2,15.4,243,2z M581.5,2v120.5
		c-68.8,0-95.6,47.8-95.6,149.2H482h65c19.1,0,34.4,15.3,34.4,34.4v197c0,19.1-15.3,34.4-34.4,34.4H374.9
		c-19.1,0-34.4-15.3-34.4-34.4v-197c0-1.9,0-3.8,0-5.7C342.4,151.2,376.8,15.4,581.5,2z"/>
</g>
</svg>
