<?xml version="1.0" encoding="utf-8"?>
<!-- Generator: Adobe Illustrator 21.1.0, SVG Export Plug-In . SVG Version: 6.00 Build 0)  -->
<svg version="1.1" id="Layer_1" xmlns="http://www.w3.org/2000/svg" xmlns:xlink="http://www.w3.org/1999/xlink" x="0px" y="0px"
	 viewBox="0 0 153.5 131.1" style="enable-background:new 0 0 153.5 131.1;" xml:space="preserve">
<style type="text/css">
	.st0{fill:#174A7C;}
	.st1{fill:#FFFFFF;}
	.st2{fill:#008BB0;}
	.st3{fill:#56B3CE;}
</style>
<rect class="st0" width="153.5" height="131.1"/>
<g>
	<g>
		<path class="st1" d="M27.4,83.2H14.1v-8.9h36.3v8.9H37.1v34.9h-9.6V83.2z"/>
		<path class="st1" d="M59.6,74.3h17.9c10.4,0,16.8,6.2,16.8,15.1v0.1c0,10.1-7.9,15.4-17.7,15.4h-7.3v13.1h-9.6V74.3z M76.9,96.4
			c4.8,0,7.6-2.9,7.6-6.6v-0.1c0-4.3-3-6.6-7.8-6.6h-7.4v13.4H76.9z"/>
		<path class="st1" d="M99.7,96.3v-0.1c0-12.4,9.4-22.6,22.8-22.6c8.3,0,13.2,2.7,17.3,6.8l-6.1,7.1c-3.4-3.1-6.8-4.9-11.2-4.9
			c-7.4,0-12.7,6.1-12.7,13.6v0.1c0,7.5,5.2,13.8,12.7,13.8c5,0,8.1-2,11.5-5.1l6.1,6.2c-4.5,4.8-9.5,7.8-18,7.8
			C109.3,118.8,99.7,108.9,99.7,96.3z"/>
	</g>
</g>
<g>
	<rect x="13.9" y="14.5" class="st2" width="21.2" height="21.2"/>
	<rect x="40" y="14.5" class="st3" width="21.2" height="21.2"/>
	<rect x="66.2" y="14.5" class="st3" width="21.2" height="21.2"/>
	<rect x="92.3" y="14.5" class="st2" width="21.2" height="21.2"/>
	<rect x="118.4" y="14.5" class="st2" width="21.2" height="21.2"/>
	<rect x="13.9" y="40.4" class="st3" width="21.2" height="21.2"/>
	<rect x="40" y="40.4" class="st3" width="21.2" height="21.2"/>
	<rect x="66.2" y="40.4" class="st3" width="21.2" height="21.2"/>
	<rect x="92.3" y="40.4" class="st2" width="21.2" height="21.2"/>
	<rect x="118.4" y="40.4" class="st3" width="21.2" height="21.2"/>
</g>
</svg>
