<?xml version="1.0" encoding="utf-8"?>
<!-- Generator: Adobe Illustrator 21.1.0, SVG Export Plug-In . SVG Version: 6.00 Build 0)  -->
<svg version="1.1" id="Layer_1" xmlns="http://www.w3.org/2000/svg" xmlns:xlink="http://www.w3.org/1999/xlink" x="0px" y="0px"
	 viewBox="0 0 153.5 131.1" style="enable-background:new 0 0 153.5 131.1;" xml:space="preserve">
<style type="text/css">
	.st0{fill:#141414;}
	.st1{fill:#FFFFFF;}
	.st2{opacity:0.9;}
	.st3{fill:#2E2E2F;}
	.st4{fill:#888A8C;}
</style>
<path class="st0" d="M0.1,0.1v131h154V0.1H0.1z M35.1,61.1h-21v-21h21V61.1z M35.1,36.1h-21v-21h21V36.1z M61.1,61.1h-21v-21h21
	V61.1z M61.1,36.1h-21v-21h21V36.1z M87.1,61.1h-21v-21h21V61.1z M87.1,36.1h-21v-21h21V36.1z M113.1,61.1h-21v-21h21V61.1z
	 M113.1,36.1h-21v-21h21V36.1z M139.1,61.1h-21v-21h21V61.1z M139.1,36.1h-21v-21h21V36.1z"/>
<g>
	<g>
		<path class="st1" d="M27.1,83.1h-13v-9h36v9h-13v35h-10V83.1z"/>
		<path class="st1" d="M59.1,74.1h18.2c10.4,0,16.8,6.3,16.8,15.3v0.1c0,10.2-7.9,15.6-17.7,15.6h-7.3v13h-10V74.1z M76.6,96.1
			c4.7,0,7.5-2.8,7.5-6.4v-0.1c0-4.2-3-6.4-7.7-6.4h-7.3v13H76.6z"/>
		<path class="st1" d="M100.1,96.3v-0.1c0-12.4,9.3-22.5,22.7-22.5c8.2,0,13.1,2.7,17.1,6.7l-6.1,7c-3.4-3-6.8-4.9-11.1-4.9
			c-7.3,0-12.6,6.1-12.6,13.5v0.8c0,7.3,6,13.3,13.3,13c4.5-0.2,7.5-2.1,10.7-5.1l6.1,6.1c-4.5,4.8-9.4,7.8-17.8,7.8
			C109.6,118.7,100.1,108.8,100.1,96.3z"/>
	</g>
</g>
<g class="st2">
	<g>
		<g>
			<g>
				<rect x="14.1" y="15.1" class="st3" width="21" height="21"/>
			</g>
		</g>
	</g>
	<g>
		<g>
			<g>
				<rect x="92.1" y="15.1" class="st3" width="21" height="21"/>
			</g>
		</g>
	</g>
	<g>
		<g>
			<g>
				<rect x="118.1" y="15.1" class="st3" width="21" height="21"/>
			</g>
		</g>
	</g>
	<g>
		<g>
			<g>
				<rect x="92.1" y="40.1" class="st3" width="21" height="21"/>
			</g>
		</g>
	</g>
</g>
<g class="st2">
	<g>
		<g>
			<g>
				<rect x="40.1" y="15.1" class="st4" width="21" height="21"/>
			</g>
		</g>
	</g>
	<g>
		<g>
			<g>
				<rect x="66.1" y="15.1" class="st4" width="21" height="21"/>
			</g>
		</g>
	</g>
	<g>
		<g>
			<g>
				<rect x="14.1" y="40.1" class="st4" width="21" height="21"/>
			</g>
		</g>
	</g>
	<g>
		<g>
			<g>
				<rect x="40.1" y="40.1" class="st4" width="21" height="21"/>
			</g>
		</g>
	</g>
	<g>
		<g>
			<g>
				<rect x="66.1" y="40.1" class="st4" width="21" height="21"/>
			</g>
		</g>
	</g>
	<g>
		<g>
			<g>
				<rect x="118.1" y="40.1" class="st4" width="21" height="21"/>
			</g>
		</g>
	</g>
</g>
</svg>
