<?xml version="1.0" encoding="utf-8"?>
<!-- Generator: Adobe Illustrator 21.1.0, SVG Export Plug-In . SVG Version: 6.00 Build 0)  -->
<svg version="1.1" id="Layer_1" xmlns="http://www.w3.org/2000/svg" xmlns:xlink="http://www.w3.org/1999/xlink" x="0px" y="0px"
	 viewBox="0 0 557.5 131.1" style="enable-background:new 0 0 557.5 131.1;" xml:space="preserve">
<style type="text/css">
	.st0{fill:#808285;}
	.st1{fill:#4C4C4E;}
	.st2{fill:#FFFFFF;}
	.st3{fill:#888A8C;}
	.st4{fill:#BABCBE;}
</style>
<g>
	<g>
		<path class="st0" d="M171.4,117.4v-6.3h1.9v6.2c0,2,1,3.1,2.8,3.1c1.7,0,2.7-1,2.7-3v-6.3h1.9v6.2c0,3.3-1.8,4.9-4.7,4.9
			C173.2,122.2,171.4,120.5,171.4,117.4z"/>
		<path class="st0" d="M183.5,111.1h4.9c1.4,0,2.4,0.4,3.1,1.1c0.6,0.6,0.9,1.4,0.9,2.4v0c0,1.8-1.1,2.9-2.6,3.3l2.9,4.1h-2.3
			l-2.7-3.8h-2.4v3.8h-1.9V111.1z M188.3,116.5c1.4,0,2.2-0.7,2.2-1.8v0c0-1.2-0.8-1.8-2.3-1.8h-2.8v3.7H188.3z"/>
		<path class="st0" d="M194.9,111.1h4.9c1.2,0,2.2,0.3,2.9,1c0.5,0.5,0.7,1.1,0.7,1.8v0c0,1.3-0.7,2-1.6,2.4
			c1.3,0.4,2.2,1.2,2.2,2.7v0c0,1.9-1.6,3-4,3h-5.1V111.1z M199.5,115.7c1.2,0,2.1-0.5,2.1-1.5v0c0-0.9-0.7-1.4-1.9-1.4h-2.8v2.9
			H199.5z M200,120.3c1.3,0,2.1-0.5,2.1-1.5v0c0-0.9-0.7-1.5-2.2-1.5h-3v3H200z"/>
		<path class="st0" d="M210.2,111h1.8l4.8,11h-2l-1.1-2.6h-5.2l-1.1,2.6h-2L210.2,111z M213,117.7l-1.9-4.4l-1.9,4.4H213z"/>
		<path class="st0" d="M218.8,111.1h1.8l5.8,7.5v-7.5h1.9V122h-1.6l-6-7.8v7.8h-1.9V111.1z"/>
		<path class="st0" d="M237.4,111.1h1.9V122h-1.9V111.1z"/>
		<path class="st0" d="M242.7,111.1h1.8l5.8,7.5v-7.5h1.9V122h-1.6l-6-7.8v7.8h-1.9V111.1z"/>
		<path class="st0" d="M254.7,120.4l1.2-1.4c1,0.9,2.1,1.4,3.4,1.4c1.2,0,1.9-0.5,1.9-1.4v0c0-0.8-0.4-1.2-2.5-1.7
			c-2.3-0.6-3.6-1.2-3.6-3.3v0c0-1.9,1.6-3.2,3.7-3.2c1.6,0,2.9,0.5,4,1.4l-1,1.5c-1-0.7-2-1.1-3-1.1c-1.1,0-1.8,0.6-1.8,1.3v0
			c0,0.8,0.5,1.2,2.6,1.7c2.3,0.6,3.5,1.4,3.5,3.2v0c0,2-1.6,3.3-3.9,3.3C257.6,122.1,256.1,121.6,254.7,120.4z"/>
		<path class="st0" d="M268,112.8h-3.5v-1.8h8.9v1.8H270v9.1H268V112.8z"/>
		<path class="st0" d="M276,111.1h1.9V122H276V111.1z"/>
		<path class="st0" d="M284,112.8h-3.5v-1.8h8.9v1.8h-3.5v9.1H284V112.8z"/>
		<path class="st0" d="M291.4,117.4v-6.3h1.9v6.2c0,2,1,3.1,2.8,3.1c1.7,0,2.7-1,2.7-3v-6.3h1.9v6.2c0,3.3-1.8,4.9-4.7,4.9
			C293.2,122.2,291.4,120.5,291.4,117.4z"/>
		<path class="st0" d="M306.5,112.8H303v-1.8h8.9v1.8h-3.5v9.1h-1.9V112.8z"/>
		<path class="st0" d="M314.4,111.1h8.1v1.7h-6.2v2.8h5.5v1.7h-5.5v2.9h6.3v1.7h-8.2V111.1z"/>
		<path class="st0" d="M337.1,120.7c-0.9,0.9-2,1.4-3.4,1.4c-2,0-3.6-1.2-3.6-3.1v0c0-1.4,0.8-2.4,2.3-3.1c-0.6-0.8-0.9-1.5-0.9-2.3
			v0c0-1.5,1.2-2.7,3.1-2.7c1.7,0,2.9,1.2,2.9,2.6v0c0,1.4-1,2.3-2.4,2.8l1.9,1.9c0.4-0.6,0.8-1.3,1.2-2.1l1.5,0.8
			c-0.4,0.9-0.9,1.7-1.5,2.5l1.7,1.7l-1.4,1L337.1,120.7z M336,119.6l-2.4-2.5c-1,0.4-1.5,1.1-1.5,1.8v0c0,0.9,0.8,1.6,1.8,1.6
			C334.7,120.5,335.4,120.2,336,119.6z M336,113.7L336,113.7c0-0.8-0.5-1.3-1.2-1.3c-0.8,0-1.3,0.5-1.3,1.3v0c0,0.5,0.2,1,0.8,1.6
			C335.4,115,336,114.4,336,113.7z"/>
		<path class="st0" d="M346.8,111.1h4.9c1.2,0,2.2,0.3,2.9,1c0.5,0.5,0.7,1.1,0.7,1.8v0c0,1.3-0.7,2-1.6,2.4
			c1.3,0.4,2.2,1.2,2.2,2.7v0c0,1.9-1.6,3-4,3h-5V111.1z M351.3,115.7c1.2,0,2.1-0.5,2.1-1.5v0c0-0.9-0.7-1.4-1.9-1.4h-2.8v2.9
			H351.3z M351.9,120.3c1.3,0,2.1-0.5,2.1-1.5v0c0-0.9-0.7-1.5-2.2-1.5h-3v3H351.9z"/>
		<path class="st0" d="M358.2,111.1h4.9c1.4,0,2.4,0.4,3.2,1.1c0.6,0.6,0.9,1.4,0.9,2.4v0c0,1.8-1.1,2.9-2.6,3.3l2.9,4.1h-2.3
			l-2.7-3.8h-2.4v3.8h-1.9V111.1z M362.9,116.5c1.4,0,2.2-0.7,2.2-1.8v0c0-1.2-0.8-1.8-2.3-1.8h-2.8v3.7H362.9z"/>
		<path class="st0" d="M368.8,116.6L368.8,116.6c0-3.1,2.4-5.7,5.7-5.7c3.4,0,5.7,2.5,5.7,5.6v0c0,3.1-2.4,5.6-5.7,5.6
			C371.2,122.2,368.8,119.6,368.8,116.6z M378.2,116.6L378.2,116.6c0-2.2-1.5-3.9-3.7-3.9c-2.2,0-3.7,1.7-3.7,3.9v0
			c0,2.1,1.5,3.9,3.7,3.9C376.7,120.4,378.2,118.7,378.2,116.6z"/>
		<path class="st0" d="M381.6,116.6L381.6,116.6c0-3.1,2.4-5.7,5.7-5.7c3.4,0,5.7,2.5,5.7,5.6v0c0,3.1-2.4,5.6-5.7,5.6
			C383.9,122.2,381.6,119.6,381.6,116.6z M391,116.6L391,116.6c0-2.2-1.5-3.9-3.7-3.9c-2.2,0-3.7,1.7-3.7,3.9v0
			c0,2.1,1.5,3.9,3.7,3.9C389.5,120.4,391,118.7,391,116.6z"/>
		<path class="st0" d="M394.8,111.1h1.9v5.5l5.2-5.5h2.4l-4.5,4.7l4.7,6.2h-2.3l-3.7-4.9l-1.7,1.7v3.2h-1.9V111.1z"/>
		<path class="st0" d="M406.4,111.1h1.9V122h-1.9V111.1z"/>
		<path class="st0" d="M412,111.1h1.8l5.8,7.5v-7.5h1.9V122h-1.6l-6-7.8v7.8H412V111.1z"/>
		<path class="st0" d="M423.6,116.6L423.6,116.6c0-3.1,2.3-5.7,5.6-5.7c1.9,0,3.1,0.5,4.2,1.5l-1.2,1.4c-0.8-0.7-1.7-1.2-3.1-1.2
			c-2,0-3.5,1.8-3.5,3.9v0c0,2.2,1.5,3.9,3.7,3.9c1,0,2-0.3,2.6-0.8v-2h-2.8v-1.7h4.6v4.6c-1.1,0.9-2.6,1.7-4.6,1.7
			C425.9,122.2,423.6,119.7,423.6,116.6z"/>
		<path class="st0" d="M435.8,120.4l1.2-1.4c1,0.9,2.1,1.4,3.4,1.4c1.2,0,1.9-0.5,1.9-1.4v0c0-0.8-0.4-1.2-2.5-1.7
			c-2.3-0.6-3.6-1.2-3.6-3.3v0c0-1.9,1.6-3.2,3.7-3.2c1.6,0,2.9,0.5,4,1.4l-1,1.5c-1-0.7-2-1.1-3-1.1c-1.1,0-1.8,0.6-1.8,1.3v0
			c0,0.8,0.5,1.2,2.6,1.7c2.3,0.6,3.5,1.4,3.5,3.2v0c0,2-1.6,3.3-3.9,3.3C438.6,122.1,437.1,121.6,435.8,120.4z"/>
		<path class="st0" d="M452.5,111.1h1.9V122h-1.9V111.1z"/>
		<path class="st0" d="M458.1,111.1h1.8l5.8,7.5v-7.5h1.9V122H466l-6-7.8v7.8h-1.9V111.1z"/>
		<path class="st0" d="M470.1,120.4l1.1-1.4c1,0.9,2.1,1.4,3.4,1.4c1.2,0,1.9-0.5,1.9-1.4v0c0-0.8-0.4-1.2-2.5-1.7
			c-2.3-0.6-3.6-1.2-3.6-3.3v0c0-1.9,1.6-3.2,3.7-3.2c1.6,0,2.9,0.5,4,1.4l-1,1.5c-1-0.7-2-1.1-3-1.1c-1.1,0-1.8,0.6-1.8,1.3v0
			c0,0.8,0.5,1.2,2.6,1.7c2.3,0.6,3.5,1.4,3.5,3.2v0c0,2-1.6,3.3-3.9,3.3C473,122.1,471.4,121.6,470.1,120.4z"/>
		<path class="st0" d="M483.7,112.8h-3.5v-1.8h8.9v1.8h-3.5v9.1h-1.9V112.8z"/>
		<path class="st0" d="M491.7,111.1h1.9V122h-1.9V111.1z"/>
		<path class="st0" d="M499.7,112.8h-3.5v-1.8h8.9v1.8h-3.5v9.1h-1.9V112.8z"/>
		<path class="st0" d="M507,117.4v-6.3h1.9v6.2c0,2,1,3.1,2.8,3.1c1.7,0,2.7-1,2.7-3v-6.3h1.9v6.2c0,3.3-1.8,4.9-4.7,4.9
			C508.8,122.2,507,120.5,507,117.4z"/>
		<path class="st0" d="M521.8,112.8h-3.5v-1.8h8.9v1.8h-3.5v9.1h-1.9V112.8z"/>
		<path class="st0" d="M529.8,111.1h1.9V122h-1.9V111.1z"/>
		<path class="st0" d="M534.3,116.6L534.3,116.6c0-3.1,2.4-5.7,5.7-5.7c3.3,0,5.7,2.5,5.7,5.6v0c0,3.1-2.4,5.6-5.7,5.6
			C536.6,122.2,534.3,119.6,534.3,116.6z M543.7,116.6L543.7,116.6c0-2.2-1.5-3.9-3.7-3.9c-2.2,0-3.7,1.7-3.7,3.9v0
			c0,2.1,1.5,3.9,3.7,3.9C542.2,120.4,543.7,118.7,543.7,116.6z"/>
		<path class="st0" d="M547.6,111.1h1.8l5.8,7.5v-7.5h1.9V122h-1.6l-6-7.8v7.8h-1.9V111.1z"/>
	</g>
	<g>
		<path class="st1" d="M173.4,80.6h-7.8v-5.2h21.3v5.2H179v20.5h-5.7V80.6z"/>
		<path class="st1" d="M197.1,75.2h5.2l11,25.9h-5.9l-2.4-5.8h-10.9l-2.4,5.8h-5.8L197.1,75.2z M203.1,90.3l-3.4-8.4l-3.4,8.4H203.1
			z"/>
		<path class="st1" d="M224.7,88l-8.6-12.7h6.6l5.4,8.4l5.5-8.4h6.4L231.4,88l9,13.2h-6.6l-5.8-8.8l-5.8,8.8h-6.4L224.7,88z"/>
		<path class="st1" d="M253.5,75.4H264c6.1,0,9.9,3.6,9.9,8.9v0.1c0,6-4.6,9.1-10.4,9.1h-4.3v7.7h-5.7V75.4z M263.6,88.4
			c2.8,0,4.5-1.7,4.5-3.9v-0.1c0-2.5-1.8-3.9-4.6-3.9h-4.4v7.9H263.6z"/>
		<path class="st1" d="M277.3,88.3L277.3,88.3c0-7.4,5.8-13.4,13.7-13.4c7.9,0,13.7,5.9,13.7,13.2v0.1c0,7.3-5.8,13.3-13.7,13.3
			C283,101.6,277.3,95.6,277.3,88.3z M298.7,88.3L298.7,88.3c0-4.5-3.2-8.2-7.8-8.2c-4.6,0-7.7,3.6-7.7,8v0.1c0,4.4,3.2,8.1,7.8,8.1
			S298.7,92.7,298.7,88.3z"/>
		<path class="st1" d="M309.3,75.4h5.7V96h12.8v5.2h-18.5V75.4z"/>
		<path class="st1" d="M332.6,75.4h5.7v25.8h-5.7V75.4z"/>
		<path class="st1" d="M343.2,88.3L343.2,88.3c0-7.4,5.5-13.4,13.4-13.4c4.9,0,7.8,1.6,10.2,4l-3.6,4.2c-2-1.8-4-2.9-6.6-2.9
			c-4.3,0-7.5,3.6-7.5,8v0.1c0,4.4,3.1,8.1,7.5,8.1c2.9,0,4.7-1.2,6.8-3l3.6,3.6c-2.6,2.8-5.6,4.6-10.6,4.6
			C348.8,101.6,343.2,95.7,343.2,88.3z"/>
		<path class="st1" d="M379.1,91l-9.9-15.6h6.6l6.1,10.3l6.3-10.3h6.4l-9.9,15.5v10.3h-5.7V91z"/>
		<path class="st1" d="M402.9,88.3L402.9,88.3c0-7.4,5.5-13.4,13.4-13.4c4.9,0,7.8,1.6,10.2,4l-3.6,4.2c-2-1.8-4-2.9-6.6-2.9
			c-4.3,0-7.5,3.6-7.5,8v0.1c0,4.4,3.1,8.1,7.5,8.1c2.9,0,4.7-1.2,6.8-3l3.6,3.6c-2.6,2.8-5.6,4.6-10.6,4.6
			C408.5,101.6,402.9,95.7,402.9,88.3z"/>
		<path class="st1" d="M431.6,75.4H451v5h-13.8v5.2h12.1v5h-12.1v5.4h14v5h-19.6V75.4z"/>
		<path class="st1" d="M456.6,75.4h5.2l12.1,15.9V75.4h5.6v25.8h-4.8l-12.5-16.4v16.4h-5.6V75.4z"/>
		<path class="st1" d="M492,80.6h-7.8v-5.2h21.3v5.2h-7.8v20.5H492V80.6z"/>
		<path class="st1" d="M510.2,75.4h19.4v5h-13.8v5.2H528v5h-12.1v5.4h14v5h-19.6V75.4z"/>
		<path class="st1" d="M535.3,75.4H547c3.3,0,5.8,0.9,7.5,2.6c1.4,1.4,2.2,3.5,2.2,5.9v0.1c0,4.2-2.2,6.8-5.5,8l6.3,9.2h-6.6
			l-5.5-8.2h-4.5v8.2h-5.7V75.4z M546.7,87.9c2.8,0,4.3-1.5,4.3-3.6v-0.1c0-2.4-1.7-3.7-4.5-3.7h-5.6v7.4H546.7z"/>
	</g>
	<path class="st1" d="M0,0v131.1h153.5V0H0z M35.1,61.7H13.9V40.4h21.2V61.7z M35.1,35.7H13.9V14.5h21.2V35.7z M61.3,61.7H40V40.4
		h21.2V61.7z M61.3,35.7H40V14.5h21.2V35.7z M87.4,61.7H66.2V40.4h21.2V61.7z M87.4,35.7H66.2V14.5h21.2V35.7z M113.5,61.7H92.3
		V40.4h21.2V61.7z M113.5,35.7H92.3V14.5h21.2V35.7z M139.6,61.7h-21.2V40.4h21.2V61.7z M139.6,35.7h-21.2V14.5h21.2V35.7z"/>
	<g>
		<g>
			<path class="st2" d="M27.4,83.2H14.1v-8.9h36.3v8.9H37.1v34.9h-9.6V83.2z"/>
			<path class="st2" d="M59.6,74.3h17.9c10.4,0,16.8,6.2,16.8,15.1v0.1c0,10.1-7.9,15.4-17.7,15.4h-7.3v13.1h-9.6V74.3z M76.9,96.4
				c4.8,0,7.6-2.9,7.6-6.6v-0.1c0-4.3-3-6.6-7.8-6.6h-7.4v13.4H76.9z"/>
			<path class="st2" d="M99.7,96.3v-0.1c0-12.4,9.4-22.6,22.8-22.6c8.3,0,13.2,2.7,17.3,6.8l-6.1,7.1c-3.4-3.1-6.8-4.9-11.2-4.9
				c-7.4,0-12.7,6.1-12.7,13.6v0.1c0,7.5,5.2,13.8,12.7,13.8c5,0,8.1-2,11.5-5.1l6.1,6.2c-4.5,4.8-9.5,7.8-18,7.8
				C109.3,118.8,99.7,108.9,99.7,96.3z"/>
		</g>
	</g>
	<g>
		<g>
			<g>
				<rect x="13.9" y="14.5" class="st3" width="21.2" height="21.2"/>
			</g>
		</g>
	</g>
	<g>
		<g>
			<g>
				<rect x="92.3" y="14.5" class="st3" width="21.2" height="21.2"/>
			</g>
		</g>
	</g>
	<g>
		<g>
			<g>
				<rect x="118.4" y="14.5" class="st3" width="21.2" height="21.2"/>
			</g>
		</g>
	</g>
	<g>
		<g>
			<g>
				<rect x="92.3" y="40.4" class="st3" width="21.2" height="21.2"/>
			</g>
		</g>
	</g>
	<g>
		<g>
			<g>
				<g>
					<rect x="40" y="14.5" class="st4" width="21.2" height="21.2"/>
				</g>
			</g>
		</g>
		<g>
			<g>
				<g>
					<rect x="66.2" y="14.5" class="st4" width="21.2" height="21.2"/>
				</g>
			</g>
		</g>
		<g>
			<g>
				<g>
					<rect x="13.9" y="40.4" class="st4" width="21.2" height="21.2"/>
				</g>
			</g>
		</g>
		<g>
			<g>
				<g>
					<rect x="40" y="40.4" class="st4" width="21.2" height="21.2"/>
				</g>
			</g>
		</g>
		<g>
			<g>
				<g>
					<rect x="66.2" y="40.4" class="st4" width="21.2" height="21.2"/>
				</g>
			</g>
		</g>
		<g>
			<g>
				<g>
					<rect x="118.4" y="40.4" class="st4" width="21.2" height="21.2"/>
				</g>
			</g>
		</g>
	</g>
</g>
</svg>
